<mxfile host="app.diagrams.net" modified="2024-06-01T13:36:03.746Z" agent="Mozilla/5.0 (Windows NT 10.0; Win64; x64) AppleWebKit/537.36 (KHTML, like Gecko) Chrome/123.0.0.0 Safari/537.36 OPR/109.0.0.0" etag="dSJ9PTSxVlTHFylYwp0i" version="24.4.13" type="device">
  <diagram name="Seite-1" id="Yz9mofs43lwaS967o4aW">
    <mxGraphModel dx="1990" dy="1083" grid="1" gridSize="10" guides="1" tooltips="1" connect="1" arrows="1" fold="1" page="1" pageScale="1" pageWidth="827" pageHeight="1169" math="0" shadow="0">
      <root>
        <mxCell id="0" />
        <mxCell id="1" parent="0" />
        <mxCell id="hCYrEtRDVHj6krVtfZrF-3" style="edgeStyle=orthogonalEdgeStyle;rounded=0;orthogonalLoop=1;jettySize=auto;html=1;exitX=0.5;exitY=1;exitDx=0;exitDy=0;entryX=0.5;entryY=0;entryDx=0;entryDy=0;" edge="1" parent="1" source="hCYrEtRDVHj6krVtfZrF-1" target="hCYrEtRDVHj6krVtfZrF-2">
          <mxGeometry relative="1" as="geometry" />
        </mxCell>
        <mxCell id="hCYrEtRDVHj6krVtfZrF-1" value="Start" style="rounded=1;whiteSpace=wrap;html=1;" vertex="1" parent="1">
          <mxGeometry x="320" y="40" width="120" height="40" as="geometry" />
        </mxCell>
        <mxCell id="hCYrEtRDVHj6krVtfZrF-23" style="edgeStyle=orthogonalEdgeStyle;rounded=0;orthogonalLoop=1;jettySize=auto;html=1;exitX=0.5;exitY=1;exitDx=0;exitDy=0;entryX=0.5;entryY=0;entryDx=0;entryDy=0;" edge="1" parent="1" source="hCYrEtRDVHj6krVtfZrF-2" target="hCYrEtRDVHj6krVtfZrF-22">
          <mxGeometry relative="1" as="geometry" />
        </mxCell>
        <mxCell id="hCYrEtRDVHj6krVtfZrF-2" value="Generate random number" style="rounded=0;whiteSpace=wrap;html=1;" vertex="1" parent="1">
          <mxGeometry x="320" y="120" width="120" height="40" as="geometry" />
        </mxCell>
        <mxCell id="hCYrEtRDVHj6krVtfZrF-24" style="edgeStyle=orthogonalEdgeStyle;rounded=0;orthogonalLoop=1;jettySize=auto;html=1;exitX=1;exitY=0.5;exitDx=0;exitDy=0;" edge="1" parent="1" source="hCYrEtRDVHj6krVtfZrF-22">
          <mxGeometry relative="1" as="geometry">
            <mxPoint x="380" y="180" as="targetPoint" />
          </mxGeometry>
        </mxCell>
        <mxCell id="hCYrEtRDVHj6krVtfZrF-25" value="No" style="edgeLabel;html=1;align=center;verticalAlign=middle;resizable=0;points=[];" vertex="1" connectable="0" parent="hCYrEtRDVHj6krVtfZrF-24">
          <mxGeometry x="-0.7114" relative="1" as="geometry">
            <mxPoint as="offset" />
          </mxGeometry>
        </mxCell>
        <mxCell id="hCYrEtRDVHj6krVtfZrF-30" style="edgeStyle=orthogonalEdgeStyle;rounded=0;orthogonalLoop=1;jettySize=auto;html=1;exitX=0.5;exitY=1;exitDx=0;exitDy=0;entryX=0.5;entryY=0;entryDx=0;entryDy=0;" edge="1" parent="1" source="hCYrEtRDVHj6krVtfZrF-22" target="hCYrEtRDVHj6krVtfZrF-26">
          <mxGeometry relative="1" as="geometry" />
        </mxCell>
        <mxCell id="hCYrEtRDVHj6krVtfZrF-31" value="Yes" style="edgeLabel;html=1;align=center;verticalAlign=middle;resizable=0;points=[];" vertex="1" connectable="0" parent="hCYrEtRDVHj6krVtfZrF-30">
          <mxGeometry x="-0.1071" y="-1" relative="1" as="geometry">
            <mxPoint as="offset" />
          </mxGeometry>
        </mxCell>
        <mxCell id="hCYrEtRDVHj6krVtfZrF-22" value="Is any key&lt;div&gt;pressed?&lt;/div&gt;" style="rhombus;whiteSpace=wrap;html=1;" vertex="1" parent="1">
          <mxGeometry x="340" y="200" width="80" height="80" as="geometry" />
        </mxCell>
        <mxCell id="hCYrEtRDVHj6krVtfZrF-33" style="edgeStyle=orthogonalEdgeStyle;rounded=0;orthogonalLoop=1;jettySize=auto;html=1;exitX=1;exitY=0.5;exitDx=0;exitDy=0;entryX=0.5;entryY=0;entryDx=0;entryDy=0;" edge="1" parent="1" source="hCYrEtRDVHj6krVtfZrF-26" target="hCYrEtRDVHj6krVtfZrF-32">
          <mxGeometry relative="1" as="geometry" />
        </mxCell>
        <mxCell id="hCYrEtRDVHj6krVtfZrF-48" value="Yes" style="edgeLabel;html=1;align=center;verticalAlign=middle;resizable=0;points=[];" vertex="1" connectable="0" parent="hCYrEtRDVHj6krVtfZrF-33">
          <mxGeometry x="-0.2767" relative="1" as="geometry">
            <mxPoint as="offset" />
          </mxGeometry>
        </mxCell>
        <mxCell id="hCYrEtRDVHj6krVtfZrF-46" style="edgeStyle=orthogonalEdgeStyle;rounded=0;orthogonalLoop=1;jettySize=auto;html=1;exitX=0;exitY=0.5;exitDx=0;exitDy=0;entryX=0.5;entryY=0;entryDx=0;entryDy=0;" edge="1" parent="1" source="hCYrEtRDVHj6krVtfZrF-26" target="hCYrEtRDVHj6krVtfZrF-45">
          <mxGeometry relative="1" as="geometry" />
        </mxCell>
        <mxCell id="hCYrEtRDVHj6krVtfZrF-47" value="No" style="edgeLabel;html=1;align=center;verticalAlign=middle;resizable=0;points=[];" vertex="1" connectable="0" parent="hCYrEtRDVHj6krVtfZrF-46">
          <mxGeometry x="-0.4367" y="1" relative="1" as="geometry">
            <mxPoint as="offset" />
          </mxGeometry>
        </mxCell>
        <mxCell id="hCYrEtRDVHj6krVtfZrF-26" value="Is &#39;#&#39;&lt;br&gt;pressed?" style="rhombus;whiteSpace=wrap;html=1;" vertex="1" parent="1">
          <mxGeometry x="340" y="320" width="80" height="80" as="geometry" />
        </mxCell>
        <mxCell id="hCYrEtRDVHj6krVtfZrF-35" style="edgeStyle=orthogonalEdgeStyle;rounded=0;orthogonalLoop=1;jettySize=auto;html=1;exitX=0.5;exitY=1;exitDx=0;exitDy=0;entryX=0.5;entryY=0;entryDx=0;entryDy=0;" edge="1" parent="1" source="hCYrEtRDVHj6krVtfZrF-32" target="hCYrEtRDVHj6krVtfZrF-34">
          <mxGeometry relative="1" as="geometry" />
        </mxCell>
        <mxCell id="hCYrEtRDVHj6krVtfZrF-32" value="Compare guessed and selected number" style="rounded=0;whiteSpace=wrap;html=1;" vertex="1" parent="1">
          <mxGeometry x="440" y="400" width="120" height="40" as="geometry" />
        </mxCell>
        <mxCell id="hCYrEtRDVHj6krVtfZrF-37" style="edgeStyle=orthogonalEdgeStyle;rounded=0;orthogonalLoop=1;jettySize=auto;html=1;exitX=0;exitY=0.5;exitDx=0;exitDy=0;entryX=0.5;entryY=0;entryDx=0;entryDy=0;" edge="1" parent="1" source="hCYrEtRDVHj6krVtfZrF-34" target="hCYrEtRDVHj6krVtfZrF-36">
          <mxGeometry relative="1" as="geometry" />
        </mxCell>
        <mxCell id="hCYrEtRDVHj6krVtfZrF-38" value="Yes" style="edgeLabel;html=1;align=center;verticalAlign=middle;resizable=0;points=[];" vertex="1" connectable="0" parent="hCYrEtRDVHj6krVtfZrF-37">
          <mxGeometry x="-0.6881" y="1" relative="1" as="geometry">
            <mxPoint as="offset" />
          </mxGeometry>
        </mxCell>
        <mxCell id="hCYrEtRDVHj6krVtfZrF-42" style="edgeStyle=orthogonalEdgeStyle;rounded=0;orthogonalLoop=1;jettySize=auto;html=1;exitX=1;exitY=0.5;exitDx=0;exitDy=0;entryX=0.5;entryY=0;entryDx=0;entryDy=0;" edge="1" parent="1" source="hCYrEtRDVHj6krVtfZrF-34" target="hCYrEtRDVHj6krVtfZrF-41">
          <mxGeometry relative="1" as="geometry" />
        </mxCell>
        <mxCell id="hCYrEtRDVHj6krVtfZrF-43" value="No" style="edgeLabel;html=1;align=center;verticalAlign=middle;resizable=0;points=[];" vertex="1" connectable="0" parent="hCYrEtRDVHj6krVtfZrF-42">
          <mxGeometry x="-0.6849" y="1" relative="1" as="geometry">
            <mxPoint as="offset" />
          </mxGeometry>
        </mxCell>
        <mxCell id="hCYrEtRDVHj6krVtfZrF-34" value="Is guess&lt;br&gt;correct?" style="rhombus;whiteSpace=wrap;html=1;" vertex="1" parent="1">
          <mxGeometry x="460" y="480" width="80" height="80" as="geometry" />
        </mxCell>
        <mxCell id="hCYrEtRDVHj6krVtfZrF-57" style="edgeStyle=orthogonalEdgeStyle;rounded=0;orthogonalLoop=1;jettySize=auto;html=1;exitX=0.5;exitY=1;exitDx=0;exitDy=0;entryX=0.5;entryY=0;entryDx=0;entryDy=0;" edge="1" parent="1" source="hCYrEtRDVHj6krVtfZrF-36" target="hCYrEtRDVHj6krVtfZrF-56">
          <mxGeometry relative="1" as="geometry" />
        </mxCell>
        <mxCell id="hCYrEtRDVHj6krVtfZrF-36" value="Show user that guess is correct" style="rounded=0;whiteSpace=wrap;html=1;" vertex="1" parent="1">
          <mxGeometry x="360" y="600" width="120" height="40" as="geometry" />
        </mxCell>
        <mxCell id="hCYrEtRDVHj6krVtfZrF-44" style="edgeStyle=orthogonalEdgeStyle;rounded=0;orthogonalLoop=1;jettySize=auto;html=1;exitX=1;exitY=0.5;exitDx=0;exitDy=0;" edge="1" parent="1" source="hCYrEtRDVHj6krVtfZrF-41">
          <mxGeometry relative="1" as="geometry">
            <mxPoint x="380" y="170" as="targetPoint" />
            <Array as="points">
              <mxPoint x="660" y="620" />
              <mxPoint x="660" y="170" />
            </Array>
          </mxGeometry>
        </mxCell>
        <mxCell id="hCYrEtRDVHj6krVtfZrF-41" value="Show user whether guess is less or greater than number" style="rounded=0;whiteSpace=wrap;html=1;" vertex="1" parent="1">
          <mxGeometry x="520" y="600" width="120" height="40" as="geometry" />
        </mxCell>
        <mxCell id="hCYrEtRDVHj6krVtfZrF-50" style="edgeStyle=orthogonalEdgeStyle;rounded=0;orthogonalLoop=1;jettySize=auto;html=1;exitX=0.5;exitY=1;exitDx=0;exitDy=0;entryX=0.5;entryY=0;entryDx=0;entryDy=0;" edge="1" parent="1" source="hCYrEtRDVHj6krVtfZrF-45" target="hCYrEtRDVHj6krVtfZrF-49">
          <mxGeometry relative="1" as="geometry" />
        </mxCell>
        <mxCell id="hCYrEtRDVHj6krVtfZrF-45" value="Add digit to number" style="rounded=0;whiteSpace=wrap;html=1;" vertex="1" parent="1">
          <mxGeometry x="200" y="400" width="120" height="40" as="geometry" />
        </mxCell>
        <mxCell id="hCYrEtRDVHj6krVtfZrF-51" style="edgeStyle=orthogonalEdgeStyle;rounded=0;orthogonalLoop=1;jettySize=auto;html=1;exitX=1;exitY=0.5;exitDx=0;exitDy=0;" edge="1" parent="1" source="hCYrEtRDVHj6krVtfZrF-49">
          <mxGeometry relative="1" as="geometry">
            <mxPoint x="260" y="460" as="targetPoint" />
          </mxGeometry>
        </mxCell>
        <mxCell id="hCYrEtRDVHj6krVtfZrF-53" value="Yes" style="edgeLabel;html=1;align=center;verticalAlign=middle;resizable=0;points=[];" vertex="1" connectable="0" parent="hCYrEtRDVHj6krVtfZrF-51">
          <mxGeometry x="-0.7171" relative="1" as="geometry">
            <mxPoint as="offset" />
          </mxGeometry>
        </mxCell>
        <mxCell id="hCYrEtRDVHj6krVtfZrF-54" style="edgeStyle=orthogonalEdgeStyle;rounded=0;orthogonalLoop=1;jettySize=auto;html=1;exitX=0;exitY=0.5;exitDx=0;exitDy=0;" edge="1" parent="1" source="hCYrEtRDVHj6krVtfZrF-49">
          <mxGeometry relative="1" as="geometry">
            <mxPoint x="380" y="170" as="targetPoint" />
            <Array as="points">
              <mxPoint x="180" y="520" />
              <mxPoint x="180" y="170" />
            </Array>
          </mxGeometry>
        </mxCell>
        <mxCell id="hCYrEtRDVHj6krVtfZrF-55" value="No" style="edgeLabel;html=1;align=center;verticalAlign=middle;resizable=0;points=[];" vertex="1" connectable="0" parent="hCYrEtRDVHj6krVtfZrF-54">
          <mxGeometry x="-0.8644" relative="1" as="geometry">
            <mxPoint as="offset" />
          </mxGeometry>
        </mxCell>
        <mxCell id="hCYrEtRDVHj6krVtfZrF-49" value="Is any key&lt;div&gt;pressed?&lt;/div&gt;" style="rhombus;whiteSpace=wrap;html=1;" vertex="1" parent="1">
          <mxGeometry x="220" y="480" width="80" height="80" as="geometry" />
        </mxCell>
        <mxCell id="hCYrEtRDVHj6krVtfZrF-56" value="End" style="rounded=1;whiteSpace=wrap;html=1;" vertex="1" parent="1">
          <mxGeometry x="360" y="680" width="120" height="40" as="geometry" />
        </mxCell>
      </root>
    </mxGraphModel>
  </diagram>
</mxfile>
